<?xml version="1.0" encoding="UTF-8" standalone="no"?>
<!DOCTYPE svg PUBLIC "-//W3C//DTD SVG 1.1//EN"
 "http://www.w3.org/Graphics/SVG/1.1/DTD/svg11.dtd">
<!-- Generated by graphviz version 2.47.3 (20210619.1520)
 -->
<!-- Title: dependencies Pages: 1 -->
<svg width="535pt" height="247pt"
 viewBox="0.00 0.00 535.00 246.80" xmlns="http://www.w3.org/2000/svg" xmlns:xlink="http://www.w3.org/1999/xlink">
<g id="graph0" class="graph" transform="scale(1 1) rotate(0) translate(4 242.8)">
<title>dependencies</title>
<polygon fill="white" stroke="transparent" points="-4,4 -4,-242.8 531,-242.8 531,4 -4,4"/>
<text text-anchor="middle" x="263.5" y="-8.2" font-family="sans-serif" font-size="14.00">dependencies</text>
<g id="clust1" class="cluster">
<title>cluster_SharedModule</title>
<polygon fill="none" stroke="black" stroke-dasharray="1,5" points="8,-32.8 8,-230.8 519,-230.8 519,-32.8 8,-32.8"/>
</g>
<g id="clust8" class="cluster">
<title>cluster_SharedModule_exports</title>
<polygon fill="none" stroke="black" points="16,-170.8 16,-222.8 511,-222.8 511,-170.8 16,-170.8"/>
</g>
<g id="clust2" class="cluster">
<title>cluster_SharedModule_declarations</title>
<polygon fill="none" stroke="black" points="24,-40.8 24,-92.8 506,-92.8 506,-40.8 24,-40.8"/>
</g>
<!-- BtnComponent -->
<g id="node1" class="node">
<title>BtnComponent</title>
<polygon fill="#ffffb3" stroke="black" points="497.56,-84.8 396.44,-84.8 396.44,-48.8 497.56,-48.8 497.56,-84.8"/>
<text text-anchor="middle" x="447" y="-62.6" font-family="Times,serif" font-size="14.00">BtnComponent</text>
</g>
<!-- SharedModule -->
<g id="node5" class="node">
<title>SharedModule</title>
<polygon fill="#8dd3c7" stroke="black" points="243.42,-149.8 240.42,-153.8 219.42,-153.8 216.42,-149.8 144.58,-149.8 144.58,-113.8 243.42,-113.8 243.42,-149.8"/>
<text text-anchor="middle" x="194" y="-127.6" font-family="Times,serif" font-size="14.00">SharedModule</text>
</g>
<!-- BtnComponent&#45;&gt;SharedModule -->
<g id="edge1" class="edge">
<title>BtnComponent&#45;&gt;SharedModule</title>
<path fill="none" stroke="black" d="M464.34,-85.07C464.34,-103.36 464.34,-128.8 464.34,-128.8 464.34,-128.8 253.27,-128.8 253.27,-128.8"/>
<polygon fill="black" stroke="black" points="253.27,-125.3 243.27,-128.8 253.27,-132.3 253.27,-125.3"/>
</g>
<!-- StateDirective -->
<g id="node2" class="node">
<title>StateDirective</title>
<polygon fill="#ffffb3" stroke="black" points="378.08,-84.8 281.92,-84.8 281.92,-48.8 378.08,-48.8 378.08,-84.8"/>
<text text-anchor="middle" x="330" y="-62.6" font-family="Times,serif" font-size="14.00">StateDirective</text>
</g>
<!-- StateDirective&#45;&gt;SharedModule -->
<g id="edge2" class="edge">
<title>StateDirective&#45;&gt;SharedModule</title>
<path fill="none" stroke="black" d="M346.01,-84.81C346.01,-100.85 346.01,-121.8 346.01,-121.8 346.01,-121.8 253.35,-121.8 253.35,-121.8"/>
<polygon fill="black" stroke="black" points="253.35,-118.3 243.35,-121.8 253.35,-125.3 253.35,-118.3"/>
</g>
<!-- TableLightComponent -->
<g id="node3" class="node">
<title>TableLightComponent</title>
<polygon fill="#ffffb3" stroke="black" points="263.54,-84.8 120.46,-84.8 120.46,-48.8 263.54,-48.8 263.54,-84.8"/>
<text text-anchor="middle" x="192" y="-62.6" font-family="Times,serif" font-size="14.00">TableLightComponent</text>
</g>
<!-- TableLightComponent&#45;&gt;SharedModule -->
<g id="edge3" class="edge">
<title>TableLightComponent&#45;&gt;SharedModule</title>
<path fill="none" stroke="black" d="M194,-84.91C194,-84.91 194,-103.79 194,-103.79"/>
<polygon fill="black" stroke="black" points="190.5,-103.79 194,-113.79 197.5,-103.79 190.5,-103.79"/>
</g>
<!-- TotalPipe -->
<g id="node4" class="node">
<title>TotalPipe</title>
<polygon fill="#ffffb3" stroke="black" points="102.44,-84.8 31.56,-84.8 31.56,-48.8 102.44,-48.8 102.44,-84.8"/>
<text text-anchor="middle" x="67" y="-62.6" font-family="Times,serif" font-size="14.00">TotalPipe</text>
</g>
<!-- TotalPipe&#45;&gt;SharedModule -->
<g id="edge4" class="edge">
<title>TotalPipe&#45;&gt;SharedModule</title>
<path fill="none" stroke="black" d="M75.91,-84.82C75.91,-102.17 75.91,-125.8 75.91,-125.8 75.91,-125.8 134.6,-125.8 134.6,-125.8"/>
<polygon fill="black" stroke="black" points="134.6,-129.3 144.6,-125.8 134.6,-122.3 134.6,-129.3"/>
</g>
<!-- BtnComponent  -->
<g id="node6" class="node">
<title>BtnComponent </title>
<polygon fill="#fb8072" stroke="black" points="502.56,-214.8 397.44,-214.8 397.44,-178.8 502.56,-178.8 502.56,-214.8"/>
<text text-anchor="middle" x="450" y="-192.6" font-family="Times,serif" font-size="14.00">BtnComponent </text>
</g>
<!-- SharedModule&#45;&gt;BtnComponent  -->
<g id="edge5" class="edge">
<title>SharedModule&#45;&gt;BtnComponent </title>
<path fill="none" stroke="black" stroke-dasharray="5,2" d="M243.38,-135.8C312.81,-135.8 430.91,-135.8 430.91,-135.8 430.91,-135.8 430.91,-168.5 430.91,-168.5"/>
<polygon fill="black" stroke="black" points="427.41,-168.5 430.91,-178.5 434.41,-168.5 427.41,-168.5"/>
</g>
<!-- StateDirective  -->
<g id="node7" class="node">
<title>StateDirective </title>
<polygon fill="#fb8072" stroke="black" points="379.58,-214.8 280.42,-214.8 280.42,-178.8 379.58,-178.8 379.58,-214.8"/>
<text text-anchor="middle" x="330" y="-192.6" font-family="Times,serif" font-size="14.00">StateDirective </text>
</g>
<!-- SharedModule&#45;&gt;StateDirective  -->
<g id="edge6" class="edge">
<title>SharedModule&#45;&gt;StateDirective </title>
<path fill="none" stroke="black" stroke-dasharray="5,2" d="M243.5,-142.8C276.55,-142.8 313.99,-142.8 313.99,-142.8 313.99,-142.8 313.99,-168.52 313.99,-168.52"/>
<polygon fill="black" stroke="black" points="310.49,-168.52 313.99,-178.52 317.49,-168.52 310.49,-168.52"/>
</g>
<!-- TableLightComponent  -->
<g id="node8" class="node">
<title>TableLightComponent </title>
<polygon fill="#fb8072" stroke="black" points="262.54,-214.8 115.46,-214.8 115.46,-178.8 262.54,-178.8 262.54,-214.8"/>
<text text-anchor="middle" x="189" y="-192.6" font-family="Times,serif" font-size="14.00">TableLightComponent </text>
</g>
<!-- SharedModule&#45;&gt;TableLightComponent  -->
<g id="edge7" class="edge">
<title>SharedModule&#45;&gt;TableLightComponent </title>
<path fill="none" stroke="black" stroke-dasharray="5,2" d="M194,-149.91C194,-149.91 194,-168.79 194,-168.79"/>
<polygon fill="black" stroke="black" points="190.5,-168.79 194,-178.79 197.5,-168.79 190.5,-168.79"/>
</g>
<!-- TotalPipe  -->
<g id="node9" class="node">
<title>TotalPipe </title>
<polygon fill="#fb8072" stroke="black" points="97.94,-214.8 24.06,-214.8 24.06,-178.8 97.94,-178.8 97.94,-214.8"/>
<text text-anchor="middle" x="61" y="-192.6" font-family="Times,serif" font-size="14.00">TotalPipe </text>
</g>
<!-- SharedModule&#45;&gt;TotalPipe  -->
<g id="edge8" class="edge">
<title>SharedModule&#45;&gt;TotalPipe </title>
<path fill="none" stroke="black" stroke-dasharray="5,2" d="M144.59,-137.8C104.23,-137.8 53.84,-137.8 53.84,-137.8 53.84,-137.8 53.84,-168.78 53.84,-168.78"/>
<polygon fill="black" stroke="black" points="50.34,-168.78 53.84,-178.78 57.34,-168.78 50.34,-168.78"/>
</g>
</g>
</svg>
