<?xml version="1.0" encoding="UTF-8" standalone="no"?>
<!DOCTYPE svg PUBLIC "-//W3C//DTD SVG 1.1//EN"
 "http://www.w3.org/Graphics/SVG/1.1/DTD/svg11.dtd">
<!-- Generated by graphviz version 2.47.3 (20210619.1520)
 -->
<!-- Title: dependencies Pages: 1 -->
<svg width="1193pt" height="174pt"
 viewBox="0.00 0.00 1193.00 173.80" xmlns="http://www.w3.org/2000/svg" xmlns:xlink="http://www.w3.org/1999/xlink">
<g id="graph0" class="graph" transform="scale(1 1) rotate(0) translate(4 169.8)">
<title>dependencies</title>
<polygon fill="white" stroke="transparent" points="-4,4 -4,-169.8 1189,-169.8 1189,4 -4,4"/>
<text text-anchor="middle" x="592.5" y="-8.2" font-family="sans-serif" font-size="14.00">dependencies</text>
<g id="clust1" class="cluster">
<title>cluster_OrdersModule</title>
<polygon fill="none" stroke="black" stroke-dasharray="1,5" points="8,-32.8 8,-157.8 1177,-157.8 1177,-32.8 8,-32.8"/>
</g>
<g id="clust2" class="cluster">
<title>cluster_OrdersModule_declarations</title>
<polygon fill="none" stroke="black" points="457,-40.8 457,-92.8 1169,-92.8 1169,-40.8 457,-40.8"/>
</g>
<g id="clust7" class="cluster">
<title>cluster_OrdersModule_imports</title>
<polygon fill="none" stroke="black" points="16,-40.8 16,-92.8 449,-92.8 449,-40.8 16,-40.8"/>
</g>
<!-- FormOrderComponent -->
<g id="node1" class="node">
<title>FormOrderComponent</title>
<polygon fill="#ffffb3" stroke="black" points="1161.31,-84.8 1016.69,-84.8 1016.69,-48.8 1161.31,-48.8 1161.31,-84.8"/>
<text text-anchor="middle" x="1089" y="-62.6" font-family="Times,serif" font-size="14.00">FormOrderComponent</text>
</g>
<!-- OrdersModule -->
<g id="node5" class="node">
<title>OrdersModule</title>
<polygon fill="#8dd3c7" stroke="black" points="597.64,-149.8 594.64,-153.8 573.64,-153.8 570.64,-149.8 500.36,-149.8 500.36,-113.8 597.64,-113.8 597.64,-149.8"/>
<text text-anchor="middle" x="549" y="-127.6" font-family="Times,serif" font-size="14.00">OrdersModule</text>
</g>
<!-- FormOrderComponent&#45;&gt;OrdersModule -->
<g id="edge1" class="edge">
<title>FormOrderComponent&#45;&gt;OrdersModule</title>
<path fill="none" stroke="black" d="M1089,-85.09C1089,-107.01 1089,-140.8 1089,-140.8 1089,-140.8 607.87,-140.8 607.87,-140.8"/>
<polygon fill="black" stroke="black" points="607.87,-137.3 597.87,-140.8 607.87,-144.3 607.87,-137.3"/>
</g>
<!-- PageAddOrderComponent -->
<g id="node2" class="node">
<title>PageAddOrderComponent</title>
<polygon fill="#ffffb3" stroke="black" points="998.79,-84.8 833.21,-84.8 833.21,-48.8 998.79,-48.8 998.79,-84.8"/>
<text text-anchor="middle" x="916" y="-62.6" font-family="Times,serif" font-size="14.00">PageAddOrderComponent</text>
</g>
<!-- PageAddOrderComponent&#45;&gt;OrdersModule -->
<g id="edge2" class="edge">
<title>PageAddOrderComponent&#45;&gt;OrdersModule</title>
<path fill="none" stroke="black" d="M916,-84.91C916,-104.14 916,-131.8 916,-131.8 916,-131.8 607.73,-131.8 607.73,-131.8"/>
<polygon fill="black" stroke="black" points="607.73,-128.3 597.73,-131.8 607.73,-135.3 607.73,-128.3"/>
</g>
<!-- PageEditOrderComponent -->
<g id="node3" class="node">
<title>PageEditOrderComponent</title>
<polygon fill="#ffffb3" stroke="black" points="815.02,-84.8 650.98,-84.8 650.98,-48.8 815.02,-48.8 815.02,-84.8"/>
<text text-anchor="middle" x="733" y="-62.6" font-family="Times,serif" font-size="14.00">PageEditOrderComponent</text>
</g>
<!-- PageEditOrderComponent&#45;&gt;OrdersModule -->
<g id="edge3" class="edge">
<title>PageEditOrderComponent&#45;&gt;OrdersModule</title>
<path fill="none" stroke="black" d="M733,-84.83C733,-101.2 733,-122.8 733,-122.8 733,-122.8 607.83,-122.8 607.83,-122.8"/>
<polygon fill="black" stroke="black" points="607.83,-119.3 597.83,-122.8 607.83,-126.3 607.83,-119.3"/>
</g>
<!-- PageListOrdersComponent -->
<g id="node4" class="node">
<title>PageListOrdersComponent</title>
<polygon fill="#ffffb3" stroke="black" points="633.41,-84.8 464.59,-84.8 464.59,-48.8 633.41,-48.8 633.41,-84.8"/>
<text text-anchor="middle" x="549" y="-62.6" font-family="Times,serif" font-size="14.00">PageListOrdersComponent</text>
</g>
<!-- PageListOrdersComponent&#45;&gt;OrdersModule -->
<g id="edge4" class="edge">
<title>PageListOrdersComponent&#45;&gt;OrdersModule</title>
<path fill="none" stroke="black" d="M549,-84.91C549,-84.91 549,-103.79 549,-103.79"/>
<polygon fill="black" stroke="black" points="545.5,-103.79 549,-113.79 552.5,-103.79 545.5,-103.79"/>
</g>
<!-- GabaritsPagesModule -->
<g id="node6" class="node">
<title>GabaritsPagesModule</title>
<polygon fill="#8dd3c7" stroke="black" points="440.63,-84.8 437.63,-88.8 416.63,-88.8 413.63,-84.8 301.37,-84.8 301.37,-48.8 440.63,-48.8 440.63,-84.8"/>
<text text-anchor="middle" x="371" y="-62.6" font-family="Times,serif" font-size="14.00">GabaritsPagesModule</text>
</g>
<!-- GabaritsPagesModule&#45;&gt;OrdersModule -->
<g id="edge5" class="edge">
<title>GabaritsPagesModule&#45;&gt;OrdersModule</title>
<path fill="none" stroke="black" d="M371,-84.83C371,-101.2 371,-122.8 371,-122.8 371,-122.8 490.36,-122.8 490.36,-122.8"/>
<polygon fill="black" stroke="black" points="490.36,-126.3 500.36,-122.8 490.36,-119.3 490.36,-126.3"/>
</g>
<!-- OrdersRoutingModule -->
<g id="node7" class="node">
<title>OrdersRoutingModule</title>
<polygon fill="#8dd3c7" stroke="black" points="283.25,-84.8 280.25,-88.8 259.25,-88.8 256.25,-84.8 140.75,-84.8 140.75,-48.8 283.25,-48.8 283.25,-84.8"/>
<text text-anchor="middle" x="212" y="-62.6" font-family="Times,serif" font-size="14.00">OrdersRoutingModule</text>
</g>
<!-- OrdersRoutingModule&#45;&gt;OrdersModule -->
<g id="edge6" class="edge">
<title>OrdersRoutingModule&#45;&gt;OrdersModule</title>
<path fill="none" stroke="black" d="M212,-84.91C212,-104.14 212,-131.8 212,-131.8 212,-131.8 490.36,-131.8 490.36,-131.8"/>
<polygon fill="black" stroke="black" points="490.36,-135.3 500.36,-131.8 490.36,-128.3 490.36,-135.3"/>
</g>
<!-- SharedModule -->
<g id="node8" class="node">
<title>SharedModule</title>
<polygon fill="#8dd3c7" stroke="black" points="122.42,-84.8 119.42,-88.8 98.42,-88.8 95.42,-84.8 23.58,-84.8 23.58,-48.8 122.42,-48.8 122.42,-84.8"/>
<text text-anchor="middle" x="73" y="-62.6" font-family="Times,serif" font-size="14.00">SharedModule</text>
</g>
<!-- SharedModule&#45;&gt;OrdersModule -->
<g id="edge7" class="edge">
<title>SharedModule&#45;&gt;OrdersModule</title>
<path fill="none" stroke="black" d="M73,-85.09C73,-107.01 73,-140.8 73,-140.8 73,-140.8 490.3,-140.8 490.3,-140.8"/>
<polygon fill="black" stroke="black" points="490.3,-144.3 500.3,-140.8 490.3,-137.3 490.3,-144.3"/>
</g>
</g>
</svg>
