<?xml version="1.0" encoding="UTF-8" standalone="no"?>
<!DOCTYPE svg PUBLIC "-//W3C//DTD SVG 1.1//EN"
 "http://www.w3.org/Graphics/SVG/1.1/DTD/svg11.dtd">
<!-- Generated by graphviz version 2.47.3 (20210619.1520)
 -->
<!-- Title: dependencies Pages: 1 -->
<svg width="7103pt" height="261pt"
 viewBox="0.00 0.00 7103.00 260.80" xmlns="http://www.w3.org/2000/svg" xmlns:xlink="http://www.w3.org/1999/xlink">
<g id="graph0" class="graph" transform="scale(1 1) rotate(0) translate(4 256.8)">
<title>dependencies</title>
<polygon fill="white" stroke="transparent" points="-4,4 -4,-256.8 7099,-256.8 7099,4 -4,4"/>
<text text-anchor="middle" x="3547.5" y="-8.2" font-family="sans-serif" font-size="14.00">dependencies</text>
<g id="clust1" class="cluster">
<title>cluster_AppModule</title>
<polygon fill="none" stroke="black" stroke-dasharray="1,5" points="8,-32.8 8,-244.8 403,-244.8 403,-32.8 8,-32.8"/>
</g>
<g id="clust2" class="cluster">
<title>cluster_AppModule_declarations</title>
<polygon fill="none" stroke="black" points="16,-40.8 16,-92.8 138,-92.8 138,-40.8 16,-40.8"/>
</g>
<g id="clust4" class="cluster">
<title>cluster_AppModule_imports</title>
<polygon fill="none" stroke="black" points="146,-40.8 146,-92.8 395,-92.8 395,-40.8 146,-40.8"/>
</g>
<g id="clust6" class="cluster">
<title>cluster_AppModule_bootstrap</title>
<polygon fill="none" stroke="black" points="156,-184.8 156,-236.8 280,-236.8 280,-184.8 156,-184.8"/>
</g>
<g id="clust14" class="cluster">
<title>cluster_ClientsModule</title>
<polygon fill="none" stroke="black" stroke-dasharray="1,5" points="1728,-32.8 1728,-160.8 2466,-160.8 2466,-32.8 1728,-32.8"/>
</g>
<g id="clust15" class="cluster">
<title>cluster_ClientsModule_declarations</title>
<polygon fill="none" stroke="black" points="1904,-40.8 1904,-92.8 2458,-92.8 2458,-40.8 1904,-40.8"/>
</g>
<g id="clust19" class="cluster">
<title>cluster_ClientsModule_imports</title>
<polygon fill="none" stroke="black" points="1736,-40.8 1736,-92.8 1896,-92.8 1896,-40.8 1736,-40.8"/>
</g>
<g id="clust29" class="cluster">
<title>cluster_CoreModule</title>
<polygon fill="none" stroke="black" stroke-dasharray="1,5" points="411,-100.8 411,-168.8 1720,-168.8 1720,-100.8 411,-100.8"/>
</g>
<g id="clust30" class="cluster">
<title>cluster_CoreModule_declarations</title>
<polygon fill="none" stroke="black" points="1316,-108.8 1316,-160.8 1712,-160.8 1712,-108.8 1316,-108.8"/>
</g>
<g id="clust35" class="cluster">
<title>cluster_CoreModule_exports</title>
<polygon fill="none" stroke="black" points="419,-108.8 419,-160.8 1308,-160.8 1308,-108.8 419,-108.8"/>
</g>
<g id="clust38" class="cluster">
<title>cluster_GabaritsPagesModule</title>
<polygon fill="none" stroke="black" stroke-dasharray="1,5" points="2474,-32.8 2474,-244.8 2890,-244.8 2890,-32.8 2474,-32.8"/>
</g>
<g id="clust39" class="cluster">
<title>cluster_GabaritsPagesModule_declarations</title>
<polygon fill="none" stroke="black" points="2488,-40.8 2488,-92.8 2881,-92.8 2881,-40.8 2488,-40.8"/>
</g>
<g id="clust43" class="cluster">
<title>cluster_GabaritsPagesModule_exports</title>
<polygon fill="none" stroke="black" points="2482,-184.8 2482,-236.8 2882,-236.8 2882,-184.8 2482,-184.8"/>
</g>
<g id="clust46" class="cluster">
<title>cluster_IconsModule</title>
<polygon fill="none" stroke="black" stroke-dasharray="1,5" points="4926,-32.8 4926,-244.8 5567,-244.8 5567,-32.8 4926,-32.8"/>
</g>
<g id="clust47" class="cluster">
<title>cluster_IconsModule_declarations</title>
<polygon fill="none" stroke="black" points="4943,-40.8 4943,-92.8 5553,-92.8 5553,-40.8 4943,-40.8"/>
</g>
<g id="clust53" class="cluster">
<title>cluster_IconsModule_exports</title>
<polygon fill="none" stroke="black" points="4934,-184.8 4934,-236.8 5559,-236.8 5559,-184.8 4934,-184.8"/>
</g>
<g id="clust56" class="cluster">
<title>cluster_LoginModule</title>
<polygon fill="none" stroke="black" stroke-dasharray="1,5" points="5575,-32.8 5575,-160.8 6407,-160.8 6407,-32.8 5575,-32.8"/>
</g>
<g id="clust57" class="cluster">
<title>cluster_LoginModule_declarations</title>
<polygon fill="none" stroke="black" points="5745,-40.8 5745,-92.8 6399,-92.8 6399,-40.8 5745,-40.8"/>
</g>
<g id="clust62" class="cluster">
<title>cluster_LoginModule_imports</title>
<polygon fill="none" stroke="black" points="5583,-40.8 5583,-92.8 5737,-92.8 5737,-40.8 5583,-40.8"/>
</g>
<g id="clust72" class="cluster">
<title>cluster_OrdersModule</title>
<polygon fill="none" stroke="black" stroke-dasharray="1,5" points="2898,-100.8 2898,-236.8 3909,-236.8 3909,-100.8 2898,-100.8"/>
</g>
<g id="clust73" class="cluster">
<title>cluster_OrdersModule_declarations</title>
<polygon fill="none" stroke="black" points="2906,-108.8 2906,-160.8 3618,-160.8 3618,-108.8 2906,-108.8"/>
</g>
<g id="clust78" class="cluster">
<title>cluster_OrdersModule_imports</title>
<polygon fill="none" stroke="black" points="3626,-108.8 3626,-160.8 3901,-160.8 3901,-108.8 3626,-108.8"/>
</g>
<g id="clust88" class="cluster">
<title>cluster_PageNotFoundModule</title>
<polygon fill="none" stroke="black" stroke-dasharray="1,5" points="6415,-32.8 6415,-160.8 6825,-160.8 6825,-32.8 6415,-32.8"/>
</g>
<g id="clust89" class="cluster">
<title>cluster_PageNotFoundModule_declarations</title>
<polygon fill="none" stroke="black" points="6635,-40.8 6635,-92.8 6817,-92.8 6817,-40.8 6635,-40.8"/>
</g>
<g id="clust91" class="cluster">
<title>cluster_PageNotFoundModule_imports</title>
<polygon fill="none" stroke="black" points="6423,-40.8 6423,-92.8 6627,-92.8 6627,-40.8 6423,-40.8"/>
</g>
<g id="clust101" class="cluster">
<title>cluster_SharedModule</title>
<polygon fill="none" stroke="black" stroke-dasharray="1,5" points="3917,-176.8 3917,-244.8 4918,-244.8 4918,-176.8 3917,-176.8"/>
</g>
<g id="clust102" class="cluster">
<title>cluster_SharedModule_declarations</title>
<polygon fill="none" stroke="black" points="4428,-184.8 4428,-236.8 4910,-236.8 4910,-184.8 4428,-184.8"/>
</g>
<g id="clust108" class="cluster">
<title>cluster_SharedModule_exports</title>
<polygon fill="none" stroke="black" points="3925,-184.8 3925,-236.8 4420,-236.8 4420,-184.8 3925,-184.8"/>
</g>
<g id="clust111" class="cluster">
<title>cluster_UiModule</title>
<polygon fill="none" stroke="black" stroke-dasharray="1,5" points="6833,-32.8 6833,-244.8 7087,-244.8 7087,-32.8 6833,-32.8"/>
</g>
<g id="clust112" class="cluster">
<title>cluster_UiModule_declarations</title>
<polygon fill="none" stroke="black" points="6844,-40.8 6844,-92.8 7076,-92.8 7076,-40.8 6844,-40.8"/>
</g>
<g id="clust116" class="cluster">
<title>cluster_UiModule_exports</title>
<polygon fill="none" stroke="black" points="6841,-184.8 6841,-236.8 7079,-236.8 7079,-184.8 6841,-184.8"/>
</g>
<!-- AppComponent -->
<g id="node1" class="node">
<title>AppComponent</title>
<polygon fill="#ffffb3" stroke="black" points="129.94,-84.8 24.06,-84.8 24.06,-48.8 129.94,-48.8 129.94,-84.8"/>
<text text-anchor="middle" x="77" y="-62.6" font-family="Times,serif" font-size="14.00">AppComponent</text>
</g>
<!-- AppModule -->
<g id="node2" class="node">
<title>AppModule</title>
<polygon fill="#8dd3c7" stroke="black" points="259.66,-152.8 256.66,-156.8 235.66,-156.8 232.66,-152.8 176.34,-152.8 176.34,-116.8 259.66,-116.8 259.66,-152.8"/>
<text text-anchor="middle" x="218" y="-130.6" font-family="Times,serif" font-size="14.00">AppModule</text>
</g>
<!-- AppComponent&#45;&gt;AppModule -->
<g id="edge1" class="edge">
<title>AppComponent&#45;&gt;AppModule</title>
<path fill="none" stroke="black" d="M77,-85.02C77,-105.17 77,-134.8 77,-134.8 77,-134.8 166.08,-134.8 166.08,-134.8"/>
<polygon fill="black" stroke="black" points="166.08,-138.3 176.08,-134.8 166.08,-131.3 166.08,-138.3"/>
</g>
<!-- AppComponent  -->
<g id="node5" class="node">
<title>AppComponent </title>
<polygon fill="#80b1d3" stroke="black" points="272.44,-228.8 163.56,-228.8 163.56,-192.8 272.44,-192.8 272.44,-228.8"/>
<text text-anchor="middle" x="218" y="-206.6" font-family="Times,serif" font-size="14.00">AppComponent </text>
</g>
<!-- AppModule&#45;&gt;AppComponent  -->
<g id="edge4" class="edge">
<title>AppModule&#45;&gt;AppComponent </title>
<path fill="none" stroke="black" stroke-dasharray="1,5" d="M218,-152.81C218,-152.81 218,-182.65 218,-182.65"/>
<polygon fill="black" stroke="black" points="214.5,-182.65 218,-192.65 221.5,-182.65 214.5,-182.65"/>
</g>
<!-- AppRoutingModule -->
<g id="node3" class="node">
<title>AppRoutingModule</title>
<polygon fill="#8dd3c7" stroke="black" points="282.27,-84.8 279.27,-88.8 258.27,-88.8 255.27,-84.8 153.73,-84.8 153.73,-48.8 282.27,-48.8 282.27,-84.8"/>
<text text-anchor="middle" x="218" y="-62.6" font-family="Times,serif" font-size="14.00">AppRoutingModule</text>
</g>
<!-- AppRoutingModule&#45;&gt;AppModule -->
<g id="edge2" class="edge">
<title>AppRoutingModule&#45;&gt;AppModule</title>
<path fill="none" stroke="black" d="M218,-85.02C218,-85.02 218,-106.53 218,-106.53"/>
<polygon fill="black" stroke="black" points="214.5,-106.53 218,-116.53 221.5,-106.53 214.5,-106.53"/>
</g>
<!-- CoreModule -->
<g id="node4" class="node">
<title>CoreModule</title>
<polygon fill="#8dd3c7" stroke="black" points="387.26,-84.8 384.26,-88.8 363.26,-88.8 360.26,-84.8 300.74,-84.8 300.74,-48.8 387.26,-48.8 387.26,-84.8"/>
<text text-anchor="middle" x="344" y="-62.6" font-family="Times,serif" font-size="14.00">CoreModule</text>
</g>
<!-- CoreModule&#45;&gt;AppModule -->
<g id="edge3" class="edge">
<title>CoreModule&#45;&gt;AppModule</title>
<path fill="none" stroke="black" d="M344,-85.02C344,-105.17 344,-134.8 344,-134.8 344,-134.8 269.96,-134.8 269.96,-134.8"/>
<polygon fill="black" stroke="black" points="269.96,-131.3 259.96,-134.8 269.96,-138.3 269.96,-131.3"/>
</g>
<!-- FooterComponent  -->
<g id="node14" class="node">
<title>FooterComponent </title>
<polygon fill="#fb8072" stroke="black" points="1299.88,-152.8 1178.12,-152.8 1178.12,-116.8 1299.88,-116.8 1299.88,-152.8"/>
<text text-anchor="middle" x="1239" y="-130.6" font-family="Times,serif" font-size="14.00">FooterComponent </text>
</g>
<!-- CoreModule&#45;&gt;FooterComponent  -->
<g id="edge12" class="edge">
<title>CoreModule&#45;&gt;FooterComponent </title>
<path fill="none" stroke="black" stroke-dasharray="5,2" d="M387.47,-62.8C566.71,-62.8 1239,-62.8 1239,-62.8 1239,-62.8 1239,-106.63 1239,-106.63"/>
<polygon fill="black" stroke="black" points="1235.5,-106.63 1239,-116.63 1242.5,-106.63 1235.5,-106.63"/>
</g>
<!-- GabaritsPagesModule  -->
<g id="node15" class="node">
<title>GabaritsPagesModule </title>
<polygon fill="#fb8072" stroke="black" points="1160.63,-152.8 1017.37,-152.8 1017.37,-116.8 1160.63,-116.8 1160.63,-152.8"/>
<text text-anchor="middle" x="1089" y="-130.6" font-family="Times,serif" font-size="14.00">GabaritsPagesModule </text>
</g>
<!-- CoreModule&#45;&gt;GabaritsPagesModule  -->
<g id="edge13" class="edge">
<title>CoreModule&#45;&gt;GabaritsPagesModule </title>
<path fill="none" stroke="black" stroke-dasharray="5,2" d="M387.27,-65.8C546.28,-65.8 1089,-65.8 1089,-65.8 1089,-65.8 1089,-106.67 1089,-106.67"/>
<polygon fill="black" stroke="black" points="1085.5,-106.67 1089,-116.67 1092.5,-106.67 1085.5,-106.67"/>
</g>
<!-- HeaderComponent  -->
<g id="node16" class="node">
<title>HeaderComponent </title>
<polygon fill="#fb8072" stroke="black" points="999.74,-152.8 874.26,-152.8 874.26,-116.8 999.74,-116.8 999.74,-152.8"/>
<text text-anchor="middle" x="937" y="-130.6" font-family="Times,serif" font-size="14.00">HeaderComponent </text>
</g>
<!-- CoreModule&#45;&gt;HeaderComponent  -->
<g id="edge14" class="edge">
<title>CoreModule&#45;&gt;HeaderComponent </title>
<path fill="none" stroke="black" stroke-dasharray="5,2" d="M387.6,-68.8C524.55,-68.8 937,-68.8 937,-68.8 937,-68.8 937,-106.77 937,-106.77"/>
<polygon fill="black" stroke="black" points="933.5,-106.77 937,-116.77 940.5,-106.77 933.5,-106.77"/>
</g>
<!-- IconsModule  -->
<g id="node17" class="node">
<title>IconsModule </title>
<polygon fill="#fb8072" stroke="black" points="856.87,-152.8 763.13,-152.8 763.13,-116.8 856.87,-116.8 856.87,-152.8"/>
<text text-anchor="middle" x="810" y="-130.6" font-family="Times,serif" font-size="14.00">IconsModule </text>
</g>
<!-- CoreModule&#45;&gt;IconsModule  -->
<g id="edge15" class="edge">
<title>CoreModule&#45;&gt;IconsModule </title>
<path fill="none" stroke="black" stroke-dasharray="5,2" d="M387.42,-71.8C503.11,-71.8 810,-71.8 810,-71.8 810,-71.8 810,-106.58 810,-106.58"/>
<polygon fill="black" stroke="black" points="806.5,-106.58 810,-116.58 813.5,-106.58 806.5,-106.58"/>
</g>
<!-- LoginModule  -->
<g id="node18" class="node">
<title>LoginModule </title>
<polygon fill="#fb8072" stroke="black" points="745.49,-152.8 648.51,-152.8 648.51,-116.8 745.49,-116.8 745.49,-152.8"/>
<text text-anchor="middle" x="697" y="-130.6" font-family="Times,serif" font-size="14.00">LoginModule </text>
</g>
<!-- CoreModule&#45;&gt;LoginModule  -->
<g id="edge16" class="edge">
<title>CoreModule&#45;&gt;LoginModule </title>
<path fill="none" stroke="black" stroke-dasharray="5,2" d="M387.28,-75.8C481.55,-75.8 697,-75.8 697,-75.8 697,-75.8 697,-106.78 697,-106.78"/>
<polygon fill="black" stroke="black" points="693.5,-106.78 697,-116.78 700.5,-106.78 693.5,-106.78"/>
</g>
<!-- NavComponent  -->
<g id="node19" class="node">
<title>NavComponent </title>
<polygon fill="#fb8072" stroke="black" points="631.15,-152.8 522.85,-152.8 522.85,-116.8 631.15,-116.8 631.15,-152.8"/>
<text text-anchor="middle" x="577" y="-130.6" font-family="Times,serif" font-size="14.00">NavComponent </text>
</g>
<!-- CoreModule&#45;&gt;NavComponent  -->
<g id="edge17" class="edge">
<title>CoreModule&#45;&gt;NavComponent </title>
<path fill="none" stroke="black" stroke-dasharray="5,2" d="M387.28,-78.8C454.66,-78.8 577,-78.8 577,-78.8 577,-78.8 577,-106.77 577,-106.77"/>
<polygon fill="black" stroke="black" points="573.5,-106.77 577,-116.77 580.5,-106.77 573.5,-106.77"/>
</g>
<!-- UiModule  -->
<g id="node20" class="node">
<title>UiModule </title>
<polygon fill="#fb8072" stroke="black" points="504.55,-152.8 427.45,-152.8 427.45,-116.8 504.55,-116.8 504.55,-152.8"/>
<text text-anchor="middle" x="466" y="-130.6" font-family="Times,serif" font-size="14.00">UiModule </text>
</g>
<!-- CoreModule&#45;&gt;UiModule  -->
<g id="edge18" class="edge">
<title>CoreModule&#45;&gt;UiModule </title>
<path fill="none" stroke="black" stroke-dasharray="5,2" d="M387.36,-81.8C422.42,-81.8 466,-81.8 466,-81.8 466,-81.8 466,-106.56 466,-106.56"/>
<polygon fill="black" stroke="black" points="462.5,-106.56 466,-116.56 469.5,-106.56 462.5,-106.56"/>
</g>
<!-- PageAddClientComponent -->
<g id="node6" class="node">
<title>PageAddClientComponent</title>
<polygon fill="#ffffb3" stroke="black" points="2450.37,-84.8 2283.63,-84.8 2283.63,-48.8 2450.37,-48.8 2450.37,-84.8"/>
<text text-anchor="middle" x="2367" y="-62.6" font-family="Times,serif" font-size="14.00">PageAddClientComponent</text>
</g>
<!-- ClientsModule -->
<g id="node9" class="node">
<title>ClientsModule</title>
<polygon fill="#8dd3c7" stroke="black" points="2139.72,-152.8 2136.72,-156.8 2115.72,-156.8 2112.72,-152.8 2040.28,-152.8 2040.28,-116.8 2139.72,-116.8 2139.72,-152.8"/>
<text text-anchor="middle" x="2090" y="-130.6" font-family="Times,serif" font-size="14.00">ClientsModule</text>
</g>
<!-- PageAddClientComponent&#45;&gt;ClientsModule -->
<g id="edge5" class="edge">
<title>PageAddClientComponent&#45;&gt;ClientsModule</title>
<path fill="none" stroke="black" d="M2367,-84.82C2367,-102.17 2367,-125.8 2367,-125.8 2367,-125.8 2149.84,-125.8 2149.84,-125.8"/>
<polygon fill="black" stroke="black" points="2149.84,-122.3 2139.84,-125.8 2149.84,-129.3 2149.84,-122.3"/>
</g>
<!-- PageEditClientComponent -->
<g id="node7" class="node">
<title>PageEditClientComponent</title>
<polygon fill="#ffffb3" stroke="black" points="2266.1,-84.8 2099.9,-84.8 2099.9,-48.8 2266.1,-48.8 2266.1,-84.8"/>
<text text-anchor="middle" x="2183" y="-62.6" font-family="Times,serif" font-size="14.00">PageEditClientComponent</text>
</g>
<!-- PageEditClientComponent&#45;&gt;ClientsModule -->
<g id="edge6" class="edge">
<title>PageEditClientComponent&#45;&gt;ClientsModule</title>
<path fill="none" stroke="black" d="M2119.78,-85.02C2119.78,-85.02 2119.78,-106.53 2119.78,-106.53"/>
<polygon fill="black" stroke="black" points="2116.28,-106.53 2119.78,-116.53 2123.28,-106.53 2116.28,-106.53"/>
</g>
<!-- PageListClientsComponent -->
<g id="node8" class="node">
<title>PageListClientsComponent</title>
<polygon fill="#ffffb3" stroke="black" points="2081.99,-84.8 1912.01,-84.8 1912.01,-48.8 2081.99,-48.8 2081.99,-84.8"/>
<text text-anchor="middle" x="1997" y="-62.6" font-family="Times,serif" font-size="14.00">PageListClientsComponent</text>
</g>
<!-- PageListClientsComponent&#45;&gt;ClientsModule -->
<g id="edge7" class="edge">
<title>PageListClientsComponent&#45;&gt;ClientsModule</title>
<path fill="none" stroke="black" d="M2061.19,-85.02C2061.19,-85.02 2061.19,-106.53 2061.19,-106.53"/>
<polygon fill="black" stroke="black" points="2057.69,-106.53 2061.19,-116.53 2064.69,-106.53 2057.69,-106.53"/>
</g>
<!-- ClientsRoutingModule -->
<g id="node10" class="node">
<title>ClientsRoutingModule</title>
<polygon fill="#8dd3c7" stroke="black" points="1888.34,-84.8 1885.34,-88.8 1864.34,-88.8 1861.34,-84.8 1743.66,-84.8 1743.66,-48.8 1888.34,-48.8 1888.34,-84.8"/>
<text text-anchor="middle" x="1816" y="-62.6" font-family="Times,serif" font-size="14.00">ClientsRoutingModule</text>
</g>
<!-- ClientsRoutingModule&#45;&gt;ClientsModule -->
<g id="edge8" class="edge">
<title>ClientsRoutingModule&#45;&gt;ClientsModule</title>
<path fill="none" stroke="black" d="M1816,-85.02C1816,-105.17 1816,-134.8 1816,-134.8 1816,-134.8 2030.38,-134.8 2030.38,-134.8"/>
<polygon fill="black" stroke="black" points="2030.38,-138.3 2040.38,-134.8 2030.38,-131.3 2030.38,-138.3"/>
</g>
<!-- FooterComponent -->
<g id="node11" class="node">
<title>FooterComponent</title>
<polygon fill="#ffffb3" stroke="black" points="1703.88,-152.8 1586.12,-152.8 1586.12,-116.8 1703.88,-116.8 1703.88,-152.8"/>
<text text-anchor="middle" x="1645" y="-130.6" font-family="Times,serif" font-size="14.00">FooterComponent</text>
</g>
<!-- FooterComponent&#45;&gt;CoreModule -->
<g id="edge9" class="edge">
<title>FooterComponent&#45;&gt;CoreModule</title>
<path fill="none" stroke="black" d="M1645,-116.6C1645,-92.44 1645,-52.8 1645,-52.8 1645,-52.8 397.29,-52.8 397.29,-52.8"/>
<polygon fill="black" stroke="black" points="397.29,-49.3 387.29,-52.8 397.29,-56.3 397.29,-49.3"/>
</g>
<!-- HeaderComponent -->
<g id="node12" class="node">
<title>HeaderComponent</title>
<polygon fill="#ffffb3" stroke="black" points="1567.74,-152.8 1446.26,-152.8 1446.26,-116.8 1567.74,-116.8 1567.74,-152.8"/>
<text text-anchor="middle" x="1507" y="-130.6" font-family="Times,serif" font-size="14.00">HeaderComponent</text>
</g>
<!-- HeaderComponent&#45;&gt;CoreModule -->
<g id="edge10" class="edge">
<title>HeaderComponent&#45;&gt;CoreModule</title>
<path fill="none" stroke="black" d="M1507,-116.48C1507,-93.14 1507,-55.8 1507,-55.8 1507,-55.8 397.47,-55.8 397.47,-55.8"/>
<polygon fill="black" stroke="black" points="397.47,-52.3 387.47,-55.8 397.47,-59.3 397.47,-52.3"/>
</g>
<!-- NavComponent -->
<g id="node13" class="node">
<title>NavComponent</title>
<polygon fill="#ffffb3" stroke="black" points="1428.15,-152.8 1323.85,-152.8 1323.85,-116.8 1428.15,-116.8 1428.15,-152.8"/>
<text text-anchor="middle" x="1376" y="-130.6" font-family="Times,serif" font-size="14.00">NavComponent</text>
</g>
<!-- NavComponent&#45;&gt;CoreModule -->
<g id="edge11" class="edge">
<title>NavComponent&#45;&gt;CoreModule</title>
<path fill="none" stroke="black" d="M1376,-116.79C1376,-94.31 1376,-58.8 1376,-58.8 1376,-58.8 397.36,-58.8 397.36,-58.8"/>
<polygon fill="black" stroke="black" points="397.36,-55.3 387.36,-58.8 397.36,-62.3 397.36,-55.3"/>
</g>
<!-- GabaritContainerComponent -->
<g id="node21" class="node">
<title>GabaritContainerComponent</title>
<polygon fill="#ffffb3" stroke="black" points="2873.02,-84.8 2694.98,-84.8 2694.98,-48.8 2873.02,-48.8 2873.02,-84.8"/>
<text text-anchor="middle" x="2784" y="-62.6" font-family="Times,serif" font-size="14.00">GabaritContainerComponent</text>
</g>
<!-- GabaritsPagesModule -->
<g id="node23" class="node">
<title>GabaritsPagesModule</title>
<polygon fill="#8dd3c7" stroke="black" points="2852.63,-152.8 2849.63,-156.8 2828.63,-156.8 2825.63,-152.8 2713.37,-152.8 2713.37,-116.8 2852.63,-116.8 2852.63,-152.8"/>
<text text-anchor="middle" x="2783" y="-130.6" font-family="Times,serif" font-size="14.00">GabaritsPagesModule</text>
</g>
<!-- GabaritContainerComponent&#45;&gt;GabaritsPagesModule -->
<g id="edge19" class="edge">
<title>GabaritContainerComponent&#45;&gt;GabaritsPagesModule</title>
<path fill="none" stroke="black" d="M2783,-85.02C2783,-85.02 2783,-106.53 2783,-106.53"/>
<polygon fill="black" stroke="black" points="2779.5,-106.53 2783,-116.53 2786.5,-106.53 2779.5,-106.53"/>
</g>
<!-- GabaritFullWidthComponent -->
<g id="node22" class="node">
<title>GabaritFullWidthComponent</title>
<polygon fill="#ffffb3" stroke="black" points="2676.37,-84.8 2495.63,-84.8 2495.63,-48.8 2676.37,-48.8 2676.37,-84.8"/>
<text text-anchor="middle" x="2586" y="-62.6" font-family="Times,serif" font-size="14.00">GabaritFullWidthComponent</text>
</g>
<!-- GabaritFullWidthComponent&#45;&gt;GabaritsPagesModule -->
<g id="edge20" class="edge">
<title>GabaritFullWidthComponent&#45;&gt;GabaritsPagesModule</title>
<path fill="none" stroke="black" d="M2614.64,-85.02C2614.64,-105.17 2614.64,-134.8 2614.64,-134.8 2614.64,-134.8 2703.06,-134.8 2703.06,-134.8"/>
<polygon fill="black" stroke="black" points="2703.06,-138.3 2713.06,-134.8 2703.06,-131.3 2703.06,-138.3"/>
</g>
<!-- GabaritContainerComponent  -->
<g id="node24" class="node">
<title>GabaritContainerComponent </title>
<polygon fill="#fb8072" stroke="black" points="2874.02,-228.8 2691.98,-228.8 2691.98,-192.8 2874.02,-192.8 2874.02,-228.8"/>
<text text-anchor="middle" x="2783" y="-206.6" font-family="Times,serif" font-size="14.00">GabaritContainerComponent </text>
</g>
<!-- GabaritsPagesModule&#45;&gt;GabaritContainerComponent  -->
<g id="edge21" class="edge">
<title>GabaritsPagesModule&#45;&gt;GabaritContainerComponent </title>
<path fill="none" stroke="black" stroke-dasharray="5,2" d="M2783,-152.81C2783,-152.81 2783,-182.65 2783,-182.65"/>
<polygon fill="black" stroke="black" points="2779.5,-182.65 2783,-192.65 2786.5,-182.65 2779.5,-182.65"/>
</g>
<!-- GabaritFullWidthComponent  -->
<g id="node25" class="node">
<title>GabaritFullWidthComponent </title>
<polygon fill="#fb8072" stroke="black" points="2674.37,-228.8 2489.63,-228.8 2489.63,-192.8 2674.37,-192.8 2674.37,-228.8"/>
<text text-anchor="middle" x="2582" y="-206.6" font-family="Times,serif" font-size="14.00">GabaritFullWidthComponent </text>
</g>
<!-- GabaritsPagesModule&#45;&gt;GabaritFullWidthComponent  -->
<g id="edge22" class="edge">
<title>GabaritsPagesModule&#45;&gt;GabaritFullWidthComponent </title>
<path fill="none" stroke="black" stroke-dasharray="5,2" d="M2713.08,-143.8C2646.08,-143.8 2555.11,-143.8 2555.11,-143.8 2555.11,-143.8 2555.11,-182.49 2555.11,-182.49"/>
<polygon fill="black" stroke="black" points="2551.61,-182.49 2555.11,-192.49 2558.61,-182.49 2551.61,-182.49"/>
</g>
<!-- OrdersModule -->
<g id="node45" class="node">
<title>OrdersModule</title>
<polygon fill="#8dd3c7" stroke="black" points="3413.64,-228.8 3410.64,-232.8 3389.64,-232.8 3386.64,-228.8 3316.36,-228.8 3316.36,-192.8 3413.64,-192.8 3413.64,-228.8"/>
<text text-anchor="middle" x="3365" y="-206.6" font-family="Times,serif" font-size="14.00">OrdersModule</text>
</g>
<!-- GabaritsPagesModule&#45;&gt;OrdersModule -->
<g id="edge40" class="edge">
<title>GabaritsPagesModule&#45;&gt;OrdersModule</title>
<path fill="none" stroke="black" d="M2852.92,-134.8C2875.07,-134.8 2893.9,-134.8 2893.9,-134.8 2893.9,-134.8 2893.9,-219.8 2893.9,-219.8 2893.9,-219.8 3306.36,-219.8 3306.36,-219.8"/>
<polygon fill="black" stroke="black" points="3306.36,-223.3 3316.36,-219.8 3306.36,-216.3 3306.36,-223.3"/>
</g>
<!-- IconCloseComponent -->
<g id="node26" class="node">
<title>IconCloseComponent</title>
<polygon fill="#ffffb3" stroke="black" points="5545.09,-84.8 5406.91,-84.8 5406.91,-48.8 5545.09,-48.8 5545.09,-84.8"/>
<text text-anchor="middle" x="5476" y="-62.6" font-family="Times,serif" font-size="14.00">IconCloseComponent</text>
</g>
<!-- IconsModule -->
<g id="node30" class="node">
<title>IconsModule</title>
<polygon fill="#8dd3c7" stroke="black" points="5210.87,-152.8 5207.87,-156.8 5186.87,-156.8 5183.87,-152.8 5121.13,-152.8 5121.13,-116.8 5210.87,-116.8 5210.87,-152.8"/>
<text text-anchor="middle" x="5166" y="-130.6" font-family="Times,serif" font-size="14.00">IconsModule</text>
</g>
<!-- IconCloseComponent&#45;&gt;IconsModule -->
<g id="edge23" class="edge">
<title>IconCloseComponent&#45;&gt;IconsModule</title>
<path fill="none" stroke="black" d="M5499.77,-85.08C5499.77,-106.12 5499.77,-137.8 5499.77,-137.8 5499.77,-137.8 5221.01,-137.8 5221.01,-137.8"/>
<polygon fill="black" stroke="black" points="5221.01,-134.3 5211.01,-137.8 5221.01,-141.3 5221.01,-134.3"/>
</g>
<!-- IconDeleteComponent -->
<g id="node27" class="node">
<title>IconDeleteComponent</title>
<polygon fill="#ffffb3" stroke="black" points="5389.24,-84.8 5246.76,-84.8 5246.76,-48.8 5389.24,-48.8 5389.24,-84.8"/>
<text text-anchor="middle" x="5318" y="-62.6" font-family="Times,serif" font-size="14.00">IconDeleteComponent</text>
</g>
<!-- IconDeleteComponent&#45;&gt;IconsModule -->
<g id="edge24" class="edge">
<title>IconDeleteComponent&#45;&gt;IconsModule</title>
<path fill="none" stroke="black" d="M5341.79,-84.83C5341.79,-104.38 5341.79,-132.8 5341.79,-132.8 5341.79,-132.8 5221.27,-132.8 5221.27,-132.8"/>
<polygon fill="black" stroke="black" points="5221.27,-129.3 5211.27,-132.8 5221.27,-136.3 5221.27,-129.3"/>
</g>
<!-- IconEditComponent -->
<g id="node28" class="node">
<title>IconEditComponent</title>
<polygon fill="#ffffb3" stroke="black" points="5228.54,-84.8 5099.46,-84.8 5099.46,-48.8 5228.54,-48.8 5228.54,-84.8"/>
<text text-anchor="middle" x="5164" y="-62.6" font-family="Times,serif" font-size="14.00">IconEditComponent</text>
</g>
<!-- IconEditComponent&#45;&gt;IconsModule -->
<g id="edge25" class="edge">
<title>IconEditComponent&#45;&gt;IconsModule</title>
<path fill="none" stroke="black" d="M5166,-85.02C5166,-85.02 5166,-106.53 5166,-106.53"/>
<polygon fill="black" stroke="black" points="5162.5,-106.53 5166,-116.53 5169.5,-106.53 5162.5,-106.53"/>
</g>
<!-- IconNavComponent -->
<g id="node29" class="node">
<title>IconNavComponent</title>
<polygon fill="#ffffb3" stroke="black" points="5080.53,-84.8 4951.47,-84.8 4951.47,-48.8 5080.53,-48.8 5080.53,-84.8"/>
<text text-anchor="middle" x="5016" y="-62.6" font-family="Times,serif" font-size="14.00">IconNavComponent</text>
</g>
<!-- IconNavComponent&#45;&gt;IconsModule -->
<g id="edge26" class="edge">
<title>IconNavComponent&#45;&gt;IconsModule</title>
<path fill="none" stroke="black" d="M5034.09,-85.05C5034.09,-107.82 5034.09,-143.8 5034.09,-143.8 5034.09,-143.8 5110.97,-143.8 5110.97,-143.8"/>
<polygon fill="black" stroke="black" points="5110.97,-147.3 5120.97,-143.8 5110.97,-140.3 5110.97,-147.3"/>
</g>
<!-- IconCloseComponent  -->
<g id="node31" class="node">
<title>IconCloseComponent </title>
<polygon fill="#fb8072" stroke="black" points="5550.59,-228.8 5409.41,-228.8 5409.41,-192.8 5550.59,-192.8 5550.59,-228.8"/>
<text text-anchor="middle" x="5480" y="-206.6" font-family="Times,serif" font-size="14.00">IconCloseComponent </text>
</g>
<!-- IconsModule&#45;&gt;IconCloseComponent  -->
<g id="edge27" class="edge">
<title>IconsModule&#45;&gt;IconCloseComponent </title>
<path fill="none" stroke="black" stroke-dasharray="5,2" d="M5211.08,-142.8C5292.21,-142.8 5454.48,-142.8 5454.48,-142.8 5454.48,-142.8 5454.48,-182.58 5454.48,-182.58"/>
<polygon fill="black" stroke="black" points="5450.98,-182.58 5454.48,-192.58 5457.98,-182.58 5450.98,-182.58"/>
</g>
<!-- IconDeleteComponent  -->
<g id="node32" class="node">
<title>IconDeleteComponent </title>
<polygon fill="#fb8072" stroke="black" points="5391.24,-228.8 5244.76,-228.8 5244.76,-192.8 5391.24,-192.8 5391.24,-228.8"/>
<text text-anchor="middle" x="5318" y="-206.6" font-family="Times,serif" font-size="14.00">IconDeleteComponent </text>
</g>
<!-- IconsModule&#45;&gt;IconDeleteComponent  -->
<g id="edge28" class="edge">
<title>IconsModule&#45;&gt;IconDeleteComponent </title>
<path fill="none" stroke="black" stroke-dasharray="5,2" d="M5211.2,-147.8C5248.11,-147.8 5294.21,-147.8 5294.21,-147.8 5294.21,-147.8 5294.21,-182.58 5294.21,-182.58"/>
<polygon fill="black" stroke="black" points="5290.71,-182.58 5294.21,-192.58 5297.71,-182.58 5290.71,-182.58"/>
</g>
<!-- IconEditComponent  -->
<g id="node33" class="node">
<title>IconEditComponent </title>
<polygon fill="#fb8072" stroke="black" points="5226.54,-228.8 5093.46,-228.8 5093.46,-192.8 5226.54,-192.8 5226.54,-228.8"/>
<text text-anchor="middle" x="5160" y="-206.6" font-family="Times,serif" font-size="14.00">IconEditComponent </text>
</g>
<!-- IconsModule&#45;&gt;IconEditComponent  -->
<g id="edge29" class="edge">
<title>IconsModule&#45;&gt;IconEditComponent </title>
<path fill="none" stroke="black" stroke-dasharray="5,2" d="M5166,-152.81C5166,-152.81 5166,-182.65 5166,-182.65"/>
<polygon fill="black" stroke="black" points="5162.5,-182.65 5166,-192.65 5169.5,-182.65 5162.5,-182.65"/>
</g>
<!-- IconNavComponent  -->
<g id="node34" class="node">
<title>IconNavComponent </title>
<polygon fill="#fb8072" stroke="black" points="5075.53,-228.8 4942.47,-228.8 4942.47,-192.8 5075.53,-192.8 5075.53,-228.8"/>
<text text-anchor="middle" x="5009" y="-206.6" font-family="Times,serif" font-size="14.00">IconNavComponent </text>
</g>
<!-- IconsModule&#45;&gt;IconNavComponent  -->
<g id="edge30" class="edge">
<title>IconsModule&#45;&gt;IconNavComponent </title>
<path fill="none" stroke="black" stroke-dasharray="5,2" d="M5120.91,-146.8C5069.55,-146.8 4992.66,-146.8 4992.66,-146.8 4992.66,-146.8 4992.66,-182.63 4992.66,-182.63"/>
<polygon fill="black" stroke="black" points="4989.16,-182.63 4992.66,-192.63 4996.16,-182.63 4989.16,-182.63"/>
</g>
<!-- PageForgotComponent -->
<g id="node35" class="node">
<title>PageForgotComponent</title>
<polygon fill="#ffffb3" stroke="black" points="6390.88,-84.8 6245.12,-84.8 6245.12,-48.8 6390.88,-48.8 6390.88,-84.8"/>
<text text-anchor="middle" x="6318" y="-62.6" font-family="Times,serif" font-size="14.00">PageForgotComponent</text>
</g>
<!-- LoginModule -->
<g id="node39" class="node">
<title>LoginModule</title>
<polygon fill="#8dd3c7" stroke="black" points="6042.49,-152.8 6039.49,-156.8 6018.49,-156.8 6015.49,-152.8 5949.51,-152.8 5949.51,-116.8 6042.49,-116.8 6042.49,-152.8"/>
<text text-anchor="middle" x="5996" y="-130.6" font-family="Times,serif" font-size="14.00">LoginModule</text>
</g>
<!-- PageForgotComponent&#45;&gt;LoginModule -->
<g id="edge31" class="edge">
<title>PageForgotComponent&#45;&gt;LoginModule</title>
<path fill="none" stroke="black" d="M6318,-85.09C6318,-107.01 6318,-140.8 6318,-140.8 6318,-140.8 6052.82,-140.8 6052.82,-140.8"/>
<polygon fill="black" stroke="black" points="6052.82,-137.3 6042.82,-140.8 6052.82,-144.3 6052.82,-137.3"/>
</g>
<!-- PageResetComponent -->
<g id="node36" class="node">
<title>PageResetComponent</title>
<polygon fill="#ffffb3" stroke="black" points="6226.65,-84.8 6087.35,-84.8 6087.35,-48.8 6226.65,-48.8 6226.65,-84.8"/>
<text text-anchor="middle" x="6157" y="-62.6" font-family="Times,serif" font-size="14.00">PageResetComponent</text>
</g>
<!-- PageResetComponent&#45;&gt;LoginModule -->
<g id="edge32" class="edge">
<title>PageResetComponent&#45;&gt;LoginModule</title>
<path fill="none" stroke="black" d="M6157,-85.07C6157,-103.36 6157,-128.8 6157,-128.8 6157,-128.8 6052.57,-128.8 6052.57,-128.8"/>
<polygon fill="black" stroke="black" points="6052.57,-125.3 6042.57,-128.8 6052.57,-132.3 6052.57,-125.3"/>
</g>
<!-- PageSignInComponent -->
<g id="node37" class="node">
<title>PageSignInComponent</title>
<polygon fill="#ffffb3" stroke="black" points="6068.88,-84.8 5923.12,-84.8 5923.12,-48.8 6068.88,-48.8 6068.88,-84.8"/>
<text text-anchor="middle" x="5996" y="-62.6" font-family="Times,serif" font-size="14.00">PageSignInComponent</text>
</g>
<!-- PageSignInComponent&#45;&gt;LoginModule -->
<g id="edge33" class="edge">
<title>PageSignInComponent&#45;&gt;LoginModule</title>
<path fill="none" stroke="black" d="M5996,-85.02C5996,-85.02 5996,-106.53 5996,-106.53"/>
<polygon fill="black" stroke="black" points="5992.5,-106.53 5996,-116.53 5999.5,-106.53 5992.5,-106.53"/>
</g>
<!-- PageSignUpComponent -->
<g id="node38" class="node">
<title>PageSignUpComponent</title>
<polygon fill="#ffffb3" stroke="black" points="5904.82,-84.8 5753.18,-84.8 5753.18,-48.8 5904.82,-48.8 5904.82,-84.8"/>
<text text-anchor="middle" x="5829" y="-62.6" font-family="Times,serif" font-size="14.00">PageSignUpComponent</text>
</g>
<!-- PageSignUpComponent&#45;&gt;LoginModule -->
<g id="edge34" class="edge">
<title>PageSignUpComponent&#45;&gt;LoginModule</title>
<path fill="none" stroke="black" d="M5829,-84.83C5829,-101.2 5829,-122.8 5829,-122.8 5829,-122.8 5939.48,-122.8 5939.48,-122.8"/>
<polygon fill="black" stroke="black" points="5939.48,-126.3 5949.48,-122.8 5939.48,-119.3 5939.48,-126.3"/>
</g>
<!-- LoginRoutingModule -->
<g id="node40" class="node">
<title>LoginRoutingModule</title>
<polygon fill="#8dd3c7" stroke="black" points="5729.11,-84.8 5726.11,-88.8 5705.11,-88.8 5702.11,-84.8 5590.89,-84.8 5590.89,-48.8 5729.11,-48.8 5729.11,-84.8"/>
<text text-anchor="middle" x="5660" y="-62.6" font-family="Times,serif" font-size="14.00">LoginRoutingModule</text>
</g>
<!-- LoginRoutingModule&#45;&gt;LoginModule -->
<g id="edge35" class="edge">
<title>LoginRoutingModule&#45;&gt;LoginModule</title>
<path fill="none" stroke="black" d="M5660,-85.1C5660,-103.07 5660,-127.8 5660,-127.8 5660,-127.8 5939.28,-127.8 5939.28,-127.8"/>
<polygon fill="black" stroke="black" points="5939.28,-131.3 5949.28,-127.8 5939.28,-124.3 5939.28,-131.3"/>
</g>
<!-- FormOrderComponent -->
<g id="node41" class="node">
<title>FormOrderComponent</title>
<polygon fill="#ffffb3" stroke="black" points="3610.31,-152.8 3465.69,-152.8 3465.69,-116.8 3610.31,-116.8 3610.31,-152.8"/>
<text text-anchor="middle" x="3538" y="-130.6" font-family="Times,serif" font-size="14.00">FormOrderComponent</text>
</g>
<!-- FormOrderComponent&#45;&gt;OrdersModule -->
<g id="edge36" class="edge">
<title>FormOrderComponent&#45;&gt;OrdersModule</title>
<path fill="none" stroke="black" d="M3538,-153.11C3538,-172.95 3538,-201.8 3538,-201.8 3538,-201.8 3423.65,-201.8 3423.65,-201.8"/>
<polygon fill="black" stroke="black" points="3423.65,-198.3 3413.65,-201.8 3423.65,-205.3 3423.65,-198.3"/>
</g>
<!-- PageAddOrderComponent -->
<g id="node42" class="node">
<title>PageAddOrderComponent</title>
<polygon fill="#ffffb3" stroke="black" points="3447.79,-152.8 3282.21,-152.8 3282.21,-116.8 3447.79,-116.8 3447.79,-152.8"/>
<text text-anchor="middle" x="3365" y="-130.6" font-family="Times,serif" font-size="14.00">PageAddOrderComponent</text>
</g>
<!-- PageAddOrderComponent&#45;&gt;OrdersModule -->
<g id="edge37" class="edge">
<title>PageAddOrderComponent&#45;&gt;OrdersModule</title>
<path fill="none" stroke="black" d="M3365,-152.81C3365,-152.81 3365,-182.65 3365,-182.65"/>
<polygon fill="black" stroke="black" points="3361.5,-182.65 3365,-192.65 3368.5,-182.65 3361.5,-182.65"/>
</g>
<!-- PageEditOrderComponent -->
<g id="node43" class="node">
<title>PageEditOrderComponent</title>
<polygon fill="#ffffb3" stroke="black" points="3264.02,-152.8 3099.98,-152.8 3099.98,-116.8 3264.02,-116.8 3264.02,-152.8"/>
<text text-anchor="middle" x="3182" y="-130.6" font-family="Times,serif" font-size="14.00">PageEditOrderComponent</text>
</g>
<!-- PageEditOrderComponent&#45;&gt;OrdersModule -->
<g id="edge38" class="edge">
<title>PageEditOrderComponent&#45;&gt;OrdersModule</title>
<path fill="none" stroke="black" d="M3182,-153.11C3182,-172.95 3182,-201.8 3182,-201.8 3182,-201.8 3305.96,-201.8 3305.96,-201.8"/>
<polygon fill="black" stroke="black" points="3305.96,-205.3 3315.96,-201.8 3305.96,-198.3 3305.96,-205.3"/>
</g>
<!-- PageListOrdersComponent -->
<g id="node44" class="node">
<title>PageListOrdersComponent</title>
<polygon fill="#ffffb3" stroke="black" points="3082.41,-152.8 2913.59,-152.8 2913.59,-116.8 3082.41,-116.8 3082.41,-152.8"/>
<text text-anchor="middle" x="2998" y="-130.6" font-family="Times,serif" font-size="14.00">PageListOrdersComponent</text>
</g>
<!-- PageListOrdersComponent&#45;&gt;OrdersModule -->
<g id="edge39" class="edge">
<title>PageListOrdersComponent&#45;&gt;OrdersModule</title>
<path fill="none" stroke="black" d="M2998,-152.81C2998,-175.29 2998,-210.8 2998,-210.8 2998,-210.8 3306.27,-210.8 3306.27,-210.8"/>
<polygon fill="black" stroke="black" points="3306.27,-214.3 3316.27,-210.8 3306.27,-207.3 3306.27,-214.3"/>
</g>
<!-- OrdersRoutingModule -->
<g id="node46" class="node">
<title>OrdersRoutingModule</title>
<polygon fill="#8dd3c7" stroke="black" points="3776.25,-152.8 3773.25,-156.8 3752.25,-156.8 3749.25,-152.8 3633.75,-152.8 3633.75,-116.8 3776.25,-116.8 3776.25,-152.8"/>
<text text-anchor="middle" x="3705" y="-130.6" font-family="Times,serif" font-size="14.00">OrdersRoutingModule</text>
</g>
<!-- OrdersRoutingModule&#45;&gt;OrdersModule -->
<g id="edge41" class="edge">
<title>OrdersRoutingModule&#45;&gt;OrdersModule</title>
<path fill="none" stroke="black" d="M3705,-152.81C3705,-175.29 3705,-210.8 3705,-210.8 3705,-210.8 3423.71,-210.8 3423.71,-210.8"/>
<polygon fill="black" stroke="black" points="3423.71,-207.3 3413.71,-210.8 3423.71,-214.3 3423.71,-207.3"/>
</g>
<!-- SharedModule -->
<g id="node47" class="node">
<title>SharedModule</title>
<polygon fill="#8dd3c7" stroke="black" points="3893.42,-152.8 3890.42,-156.8 3869.42,-156.8 3866.42,-152.8 3794.58,-152.8 3794.58,-116.8 3893.42,-116.8 3893.42,-152.8"/>
<text text-anchor="middle" x="3844" y="-130.6" font-family="Times,serif" font-size="14.00">SharedModule</text>
</g>
<!-- SharedModule&#45;&gt;OrdersModule -->
<g id="edge42" class="edge">
<title>SharedModule&#45;&gt;OrdersModule</title>
<path fill="none" stroke="black" d="M3844,-152.83C3844,-177.78 3844,-219.8 3844,-219.8 3844,-219.8 3424.01,-219.8 3424.01,-219.8"/>
<polygon fill="black" stroke="black" points="3424.01,-216.3 3414.01,-219.8 3424.01,-223.3 3424.01,-216.3"/>
</g>
<!-- BtnComponent  -->
<g id="node55" class="node">
<title>BtnComponent </title>
<polygon fill="#fb8072" stroke="black" points="4411.56,-228.8 4306.44,-228.8 4306.44,-192.8 4411.56,-192.8 4411.56,-228.8"/>
<text text-anchor="middle" x="4359" y="-206.6" font-family="Times,serif" font-size="14.00">BtnComponent </text>
</g>
<!-- SharedModule&#45;&gt;BtnComponent  -->
<g id="edge49" class="edge">
<title>SharedModule&#45;&gt;BtnComponent </title>
<path fill="none" stroke="black" stroke-dasharray="5,2" d="M3893.38,-133.8C4022.28,-133.8 4359,-133.8 4359,-133.8 4359,-133.8 4359,-182.55 4359,-182.55"/>
<polygon fill="black" stroke="black" points="4355.5,-182.55 4359,-192.55 4362.5,-182.55 4355.5,-182.55"/>
</g>
<!-- StateDirective  -->
<g id="node56" class="node">
<title>StateDirective </title>
<polygon fill="#fb8072" stroke="black" points="4288.58,-228.8 4189.42,-228.8 4189.42,-192.8 4288.58,-192.8 4288.58,-228.8"/>
<text text-anchor="middle" x="4239" y="-206.6" font-family="Times,serif" font-size="14.00">StateDirective </text>
</g>
<!-- SharedModule&#45;&gt;StateDirective  -->
<g id="edge50" class="edge">
<title>SharedModule&#45;&gt;StateDirective </title>
<path fill="none" stroke="black" stroke-dasharray="5,2" d="M3893.23,-136.8C3999.12,-136.8 4239,-136.8 4239,-136.8 4239,-136.8 4239,-182.51 4239,-182.51"/>
<polygon fill="black" stroke="black" points="4235.5,-182.51 4239,-192.51 4242.5,-182.51 4235.5,-182.51"/>
</g>
<!-- TableLightComponent  -->
<g id="node57" class="node">
<title>TableLightComponent </title>
<polygon fill="#fb8072" stroke="black" points="4171.54,-228.8 4024.46,-228.8 4024.46,-192.8 4171.54,-192.8 4171.54,-228.8"/>
<text text-anchor="middle" x="4098" y="-206.6" font-family="Times,serif" font-size="14.00">TableLightComponent </text>
</g>
<!-- SharedModule&#45;&gt;TableLightComponent  -->
<g id="edge51" class="edge">
<title>SharedModule&#45;&gt;TableLightComponent </title>
<path fill="none" stroke="black" stroke-dasharray="5,2" d="M3893.27,-139.8C3967.14,-139.8 4098,-139.8 4098,-139.8 4098,-139.8 4098,-182.52 4098,-182.52"/>
<polygon fill="black" stroke="black" points="4094.5,-182.52 4098,-192.52 4101.5,-182.52 4094.5,-182.52"/>
</g>
<!-- TotalPipe  -->
<g id="node58" class="node">
<title>TotalPipe </title>
<polygon fill="#fb8072" stroke="black" points="4006.94,-228.8 3933.06,-228.8 3933.06,-192.8 4006.94,-192.8 4006.94,-228.8"/>
<text text-anchor="middle" x="3970" y="-206.6" font-family="Times,serif" font-size="14.00">TotalPipe </text>
</g>
<!-- SharedModule&#45;&gt;TotalPipe  -->
<g id="edge52" class="edge">
<title>SharedModule&#45;&gt;TotalPipe </title>
<path fill="none" stroke="black" stroke-dasharray="5,2" d="M3893.44,-149.8C3928.74,-149.8 3970,-149.8 3970,-149.8 3970,-149.8 3970,-182.5 3970,-182.5"/>
<polygon fill="black" stroke="black" points="3966.5,-182.5 3970,-192.5 3973.5,-182.5 3966.5,-182.5"/>
</g>
<!-- PageNotFoundComponent -->
<g id="node48" class="node">
<title>PageNotFoundComponent</title>
<polygon fill="#ffffb3" stroke="black" points="6808.82,-84.8 6643.18,-84.8 6643.18,-48.8 6808.82,-48.8 6808.82,-84.8"/>
<text text-anchor="middle" x="6726" y="-62.6" font-family="Times,serif" font-size="14.00">PageNotFoundComponent</text>
</g>
<!-- PageNotFoundModule -->
<g id="node49" class="node">
<title>PageNotFoundModule</title>
<polygon fill="#8dd3c7" stroke="black" points="6696.54,-152.8 6693.54,-156.8 6672.54,-156.8 6669.54,-152.8 6553.46,-152.8 6553.46,-116.8 6696.54,-116.8 6696.54,-152.8"/>
<text text-anchor="middle" x="6625" y="-130.6" font-family="Times,serif" font-size="14.00">PageNotFoundModule</text>
</g>
<!-- PageNotFoundComponent&#45;&gt;PageNotFoundModule -->
<g id="edge43" class="edge">
<title>PageNotFoundComponent&#45;&gt;PageNotFoundModule</title>
<path fill="none" stroke="black" d="M6670.05,-85.02C6670.05,-85.02 6670.05,-106.53 6670.05,-106.53"/>
<polygon fill="black" stroke="black" points="6666.55,-106.53 6670.05,-116.53 6673.55,-106.53 6666.55,-106.53"/>
</g>
<!-- PageNotFoundRoutingModule -->
<g id="node50" class="node">
<title>PageNotFoundRoutingModule</title>
<polygon fill="#8dd3c7" stroke="black" points="6619.16,-84.8 6616.16,-88.8 6595.16,-88.8 6592.16,-84.8 6430.84,-84.8 6430.84,-48.8 6619.16,-48.8 6619.16,-84.8"/>
<text text-anchor="middle" x="6525" y="-62.6" font-family="Times,serif" font-size="14.00">PageNotFoundRoutingModule</text>
</g>
<!-- PageNotFoundRoutingModule&#45;&gt;PageNotFoundModule -->
<g id="edge44" class="edge">
<title>PageNotFoundRoutingModule&#45;&gt;PageNotFoundModule</title>
<path fill="none" stroke="black" d="M6586.28,-85.02C6586.28,-85.02 6586.28,-106.53 6586.28,-106.53"/>
<polygon fill="black" stroke="black" points="6582.78,-106.53 6586.28,-116.53 6589.78,-106.53 6582.78,-106.53"/>
</g>
<!-- BtnComponent -->
<g id="node51" class="node">
<title>BtnComponent</title>
<polygon fill="#ffffb3" stroke="black" points="4901.56,-228.8 4800.44,-228.8 4800.44,-192.8 4901.56,-192.8 4901.56,-228.8"/>
<text text-anchor="middle" x="4851" y="-206.6" font-family="Times,serif" font-size="14.00">BtnComponent</text>
</g>
<!-- BtnComponent&#45;&gt;SharedModule -->
<g id="edge45" class="edge">
<title>BtnComponent&#45;&gt;SharedModule</title>
<path fill="none" stroke="black" d="M4851,-192.59C4851,-166.29 4851,-120.8 4851,-120.8 4851,-120.8 3903.25,-120.8 3903.25,-120.8"/>
<polygon fill="black" stroke="black" points="3903.25,-117.3 3893.25,-120.8 3903.25,-124.3 3903.25,-117.3"/>
</g>
<!-- StateDirective -->
<g id="node52" class="node">
<title>StateDirective</title>
<polygon fill="#ffffb3" stroke="black" points="4782.08,-228.8 4685.92,-228.8 4685.92,-192.8 4782.08,-192.8 4782.08,-228.8"/>
<text text-anchor="middle" x="4734" y="-206.6" font-family="Times,serif" font-size="14.00">StateDirective</text>
</g>
<!-- StateDirective&#45;&gt;SharedModule -->
<g id="edge46" class="edge">
<title>StateDirective&#45;&gt;SharedModule</title>
<path fill="none" stroke="black" d="M4734,-192.77C4734,-167.29 4734,-123.8 4734,-123.8 4734,-123.8 3903.44,-123.8 3903.44,-123.8"/>
<polygon fill="black" stroke="black" points="3903.44,-120.3 3893.44,-123.8 3903.44,-127.3 3903.44,-120.3"/>
</g>
<!-- TableLightComponent -->
<g id="node53" class="node">
<title>TableLightComponent</title>
<polygon fill="#ffffb3" stroke="black" points="4667.54,-228.8 4524.46,-228.8 4524.46,-192.8 4667.54,-192.8 4667.54,-228.8"/>
<text text-anchor="middle" x="4596" y="-206.6" font-family="Times,serif" font-size="14.00">TableLightComponent</text>
</g>
<!-- TableLightComponent&#45;&gt;SharedModule -->
<g id="edge47" class="edge">
<title>TableLightComponent&#45;&gt;SharedModule</title>
<path fill="none" stroke="black" d="M4596,-192.57C4596,-167.87 4596,-126.8 4596,-126.8 4596,-126.8 3903.34,-126.8 3903.34,-126.8"/>
<polygon fill="black" stroke="black" points="3903.34,-123.3 3893.34,-126.8 3903.34,-130.3 3903.34,-123.3"/>
</g>
<!-- TotalPipe -->
<g id="node54" class="node">
<title>TotalPipe</title>
<polygon fill="#ffffb3" stroke="black" points="4506.44,-228.8 4435.56,-228.8 4435.56,-192.8 4506.44,-192.8 4506.44,-228.8"/>
<text text-anchor="middle" x="4471" y="-206.6" font-family="Times,serif" font-size="14.00">TotalPipe</text>
</g>
<!-- TotalPipe&#45;&gt;SharedModule -->
<g id="edge48" class="edge">
<title>TotalPipe&#45;&gt;SharedModule</title>
<path fill="none" stroke="black" d="M4471,-192.65C4471,-169.04 4471,-130.8 4471,-130.8 4471,-130.8 3903.46,-130.8 3903.46,-130.8"/>
<polygon fill="black" stroke="black" points="3903.46,-127.3 3893.46,-130.8 3903.46,-134.3 3903.46,-127.3"/>
</g>
<!-- Ui2Component -->
<g id="node59" class="node">
<title>Ui2Component</title>
<polygon fill="#ffffb3" stroke="black" points="7068.33,-84.8 6965.67,-84.8 6965.67,-48.8 7068.33,-48.8 7068.33,-84.8"/>
<text text-anchor="middle" x="7017" y="-62.6" font-family="Times,serif" font-size="14.00">Ui2Component</text>
</g>
<!-- UiModule -->
<g id="node61" class="node">
<title>UiModule</title>
<polygon fill="#8dd3c7" stroke="black" points="6936.55,-152.8 6933.55,-156.8 6912.55,-156.8 6909.55,-152.8 6863.45,-152.8 6863.45,-116.8 6936.55,-116.8 6936.55,-152.8"/>
<text text-anchor="middle" x="6900" y="-130.6" font-family="Times,serif" font-size="14.00">UiModule</text>
</g>
<!-- Ui2Component&#45;&gt;UiModule -->
<g id="edge53" class="edge">
<title>Ui2Component&#45;&gt;UiModule</title>
<path fill="none" stroke="black" d="M7034.05,-85.07C7034.05,-103.36 7034.05,-128.8 7034.05,-128.8 7034.05,-128.8 6946.63,-128.8 6946.63,-128.8"/>
<polygon fill="black" stroke="black" points="6946.63,-125.3 6936.63,-128.8 6946.63,-132.3 6946.63,-125.3"/>
</g>
<!-- UiComponent -->
<g id="node60" class="node">
<title>UiComponent</title>
<polygon fill="#ffffb3" stroke="black" points="6947.83,-84.8 6852.17,-84.8 6852.17,-48.8 6947.83,-48.8 6947.83,-84.8"/>
<text text-anchor="middle" x="6900" y="-62.6" font-family="Times,serif" font-size="14.00">UiComponent</text>
</g>
<!-- UiComponent&#45;&gt;UiModule -->
<g id="edge54" class="edge">
<title>UiComponent&#45;&gt;UiModule</title>
<path fill="none" stroke="black" d="M6900,-85.02C6900,-85.02 6900,-106.53 6900,-106.53"/>
<polygon fill="black" stroke="black" points="6896.5,-106.53 6900,-116.53 6903.5,-106.53 6896.5,-106.53"/>
</g>
<!-- Ui2Component  -->
<g id="node62" class="node">
<title>Ui2Component </title>
<polygon fill="#fb8072" stroke="black" points="7070.83,-228.8 6965.17,-228.8 6965.17,-192.8 7070.83,-192.8 7070.83,-228.8"/>
<text text-anchor="middle" x="7018" y="-206.6" font-family="Times,serif" font-size="14.00">Ui2Component </text>
</g>
<!-- UiModule&#45;&gt;Ui2Component  -->
<g id="edge55" class="edge">
<title>UiModule&#45;&gt;Ui2Component </title>
<path fill="none" stroke="black" stroke-dasharray="5,2" d="M6936.65,-140.8C6965.17,-140.8 6999.95,-140.8 6999.95,-140.8 6999.95,-140.8 6999.95,-182.77 6999.95,-182.77"/>
<polygon fill="black" stroke="black" points="6996.45,-182.77 6999.95,-192.77 7003.45,-182.77 6996.45,-182.77"/>
</g>
<!-- UiComponent  -->
<g id="node63" class="node">
<title>UiComponent </title>
<polygon fill="#fb8072" stroke="black" points="6947.33,-228.8 6848.67,-228.8 6848.67,-192.8 6947.33,-192.8 6947.33,-228.8"/>
<text text-anchor="middle" x="6898" y="-206.6" font-family="Times,serif" font-size="14.00">UiComponent </text>
</g>
<!-- UiModule&#45;&gt;UiComponent  -->
<g id="edge56" class="edge">
<title>UiModule&#45;&gt;UiComponent </title>
<path fill="none" stroke="black" stroke-dasharray="5,2" d="M6900,-152.81C6900,-152.81 6900,-182.65 6900,-182.65"/>
<polygon fill="black" stroke="black" points="6896.5,-182.65 6900,-192.65 6903.5,-182.65 6896.5,-182.65"/>
</g>
</g>
</svg>
